{"asset":{"version":"2.0","generator":"Blockbench 3.5.4 glTF exporter"},"scenes":[{"nodes":[2,5,8,11,13,16],"name":"blockbench_export"}],"scene":0,"nodes":[{"translation":[1.9,-12,0],"name":"bb1c2554-554b-4bbf-37de-48f225d61d62","mesh":0},{"translation":[1.9,-12,0],"name":"f22595d8-449c-16d1-80b7-0e44b7fcc9ba","mesh":1},{"rotation":[0.08714246850588939,-0.0015210774457754552,-0.017385994761764084,0.9960429728140489],"translation":[-1.9,12,0],"name":"LeftLeg","children":[0,1]},{"translation":[-1.9,-12,0],"name":"eb76fbe3-62bd-8804-155c-5b78be8a4614","mesh":2},{"translation":[-1.9,-12,0],"name":"c9f4f9b0-eb61-3c91-8e51-ca9a17a09eca","mesh":3},{"rotation":[-0.09583115474787583,-0.0016727390282702394,0.01737205902003089,0.9952445947048578],"translation":[1.9,12,0],"name":"RightLeg","children":[3,4]},{"translation":[5,-22,0],"name":"6de4de11-f7cf-88be-7258-585a5c31af47","mesh":4},{"translation":[5,-22,0],"name":"80ef5dff-7c89-2cc3-4d11-b2a1b011f1ee","mesh":5},{"rotation":[-0.10452846326765346,0,0,0.9945218953682733],"translation":[-5,22,0],"name":"LeftArm","children":[6,7]},{"translation":[-5,-22,0],"name":"4e706d44-9e4d-5250-01b3-a69561c553fb","mesh":6},{"translation":[-5,-22,0],"name":"439c7d7f-7f87-7e40-f8c6-20b8ae98b05d","mesh":7},{"rotation":[0.08715574274765817,0,0,0.9961946980917455],"translation":[5,22,0],"name":"RightArm","children":[9,10]},{"translation":[0,-24,0],"name":"a4a7c58c-d9cb-9884-ce11-f77b9f8e0fde","mesh":8},{"translation":[0,24,0],"name":"Body","children":[12]},{"translation":[0,-24,0],"name":"6986f021-3302-7d5e-bebd-464d38f55811","mesh":9},{"translation":[0,-24,0],"name":"a0cf3289-c950-9a38-1dc5-fc0054c376b8","mesh":10},{"rotation":[0.05228614400929896,-0.043559608510925024,0.002282862348496242,0.997679060715675],"translation":[0,24,0],"name":"Head","children":[14,15]}],"bufferViews":[{"buffer":0,"byteOffset":0,"byteLength":432,"target":34962,"byteStride":12},{"buffer":0,"byteOffset":432,"byteLength":432,"target":34962,"byteStride":12},{"buffer":0,"byteOffset":864,"byteLength":288,"target":34962,"byteStride":8},{"buffer":0,"byteOffset":1152,"byteLength":12,"target":34963},{"buffer":0,"byteOffset":1164,"byteLength":12,"target":34963},{"buffer":0,"byteOffset":1176,"byteLength":12,"target":34963},{"buffer":0,"byteOffset":1188,"byteLength":12,"target":34963},{"buffer":0,"byteOffset":1200,"byteLength":12,"target":34963},{"buffer":0,"byteOffset":1212,"byteLength":12,"target":34963},{"buffer":0,"byteOffset":1224,"byteLength":432,"target":34962,"byteStride":12},{"buffer":0,"byteOffset":1656,"byteLength":432,"target":34962,"byteStride":12},{"buffer":0,"byteOffset":2088,"byteLength":288,"target":34962,"byteStride":8},{"buffer":0,"byteOffset":2376,"byteLength":12,"target":34963},{"buffer":0,"byteOffset":2388,"byteLength":12,"target":34963},{"buffer":0,"byteOffset":2400,"byteLength":12,"target":34963},{"buffer":0,"byteOffset":2412,"byteLength":12,"target":34963},{"buffer":0,"byteOffset":2424,"byteLength":12,"target":34963},{"buffer":0,"byteOffset":2436,"byteLength":12,"target":34963},{"buffer":0,"byteOffset":2448,"byteLength":432,"target":34962,"byteStride":12},{"buffer":0,"byteOffset":2880,"byteLength":432,"target":34962,"byteStride":12},{"buffer":0,"byteOffset":3312,"byteLength":288,"target":34962,"byteStride":8},{"buffer":0,"byteOffset":3600,"byteLength":12,"target":34963},{"buffer":0,"byteOffset":3612,"byteLength":12,"target":34963},{"buffer":0,"byteOffset":3624,"byteLength":12,"target":34963},{"buffer":0,"byteOffset":3636,"byteLength":12,"target":34963},{"buffer":0,"byteOffset":3648,"byteLength":12,"target":34963},{"buffer":0,"byteOffset":3660,"byteLength":12,"target":34963},{"buffer":0,"byteOffset":3672,"byteLength":432,"target":34962,"byteStride":12},{"buffer":0,"byteOffset":4104,"byteLength":432,"target":34962,"byteStride":12},{"buffer":0,"byteOffset":4536,"byteLength":288,"target":34962,"byteStride":8},{"buffer":0,"byteOffset":4824,"byteLength":12,"target":34963},{"buffer":0,"byteOffset":4836,"byteLength":12,"target":34963},{"buffer":0,"byteOffset":4848,"byteLength":12,"target":34963},{"buffer":0,"byteOffset":4860,"byteLength":12,"target":34963},{"buffer":0,"byteOffset":4872,"byteLength":12,"target":34963},{"buffer":0,"byteOffset":4884,"byteLength":12,"target":34963},{"buffer":0,"byteOffset":4896,"byteLength":432,"target":34962,"byteStride":12},{"buffer":0,"byteOffset":5328,"byteLength":432,"target":34962,"byteStride":12},{"buffer":0,"byteOffset":5760,"byteLength":288,"target":34962,"byteStride":8},{"buffer":0,"byteOffset":6048,"byteLength":12,"target":34963},{"buffer":0,"byteOffset":6060,"byteLength":12,"target":34963},{"buffer":0,"byteOffset":6072,"byteLength":12,"target":34963},{"buffer":0,"byteOffset":6084,"byteLength":12,"target":34963},{"buffer":0,"byteOffset":6096,"byteLength":12,"target":34963},{"buffer":0,"byteOffset":6108,"byteLength":12,"target":34963},{"buffer":0,"byteOffset":6120,"byteLength":432,"target":34962,"byteStride":12},{"buffer":0,"byteOffset":6552,"byteLength":432,"target":34962,"byteStride":12},{"buffer":0,"byteOffset":6984,"byteLength":288,"target":34962,"byteStride":8},{"buffer":0,"byteOffset":7272,"byteLength":12,"target":34963},{"buffer":0,"byteOffset":7284,"byteLength":12,"target":34963},{"buffer":0,"byteOffset":7296,"byteLength":12,"target":34963},{"buffer":0,"byteOffset":7308,"byteLength":12,"target":34963},{"buffer":0,"byteOffset":7320,"byteLength":12,"target":34963},{"buffer":0,"byteOffset":7332,"byteLength":12,"target":34963},{"buffer":0,"byteOffset":7344,"byteLength":432,"target":34962,"byteStride":12},{"buffer":0,"byteOffset":7776,"byteLength":432,"target":34962,"byteStride":12},{"buffer":0,"byteOffset":8208,"byteLength":288,"target":34962,"byteStride":8},{"buffer":0,"byteOffset":8496,"byteLength":12,"target":34963},{"buffer":0,"byteOffset":8508,"byteLength":12,"target":34963},{"buffer":0,"byteOffset":8520,"byteLength":12,"target":34963},{"buffer":0,"byteOffset":8532,"byteLength":12,"target":34963},{"buffer":0,"byteOffset":8544,"byteLength":12,"target":34963},{"buffer":0,"byteOffset":8556,"byteLength":12,"target":34963},{"buffer":0,"byteOffset":8568,"byteLength":432,"target":34962,"byteStride":12},{"buffer":0,"byteOffset":9000,"byteLength":432,"target":34962,"byteStride":12},{"buffer":0,"byteOffset":9432,"byteLength":288,"target":34962,"byteStride":8},{"buffer":0,"byteOffset":9720,"byteLength":12,"target":34963},{"buffer":0,"byteOffset":9732,"byteLength":12,"target":34963},{"buffer":0,"byteOffset":9744,"byteLength":12,"target":34963},{"buffer":0,"byteOffset":9756,"byteLength":12,"target":34963},{"buffer":0,"byteOffset":9768,"byteLength":12,"target":34963},{"buffer":0,"byteOffset":9780,"byteLength":12,"target":34963},{"buffer":0,"byteOffset":9792,"byteLength":432,"target":34962,"byteStride":12},{"buffer":0,"byteOffset":10224,"byteLength":432,"target":34962,"byteStride":12},{"buffer":0,"byteOffset":10656,"byteLength":288,"target":34962,"byteStride":8},{"buffer":0,"byteOffset":10944,"byteLength":12,"target":34963},{"buffer":0,"byteOffset":10956,"byteLength":12,"target":34963},{"buffer":0,"byteOffset":10968,"byteLength":12,"target":34963},{"buffer":0,"byteOffset":10980,"byteLength":12,"target":34963},{"buffer":0,"byteOffset":10992,"byteLength":12,"target":34963},{"buffer":0,"byteOffset":11004,"byteLength":12,"target":34963},{"buffer":0,"byteOffset":11016,"byteLength":432,"target":34962,"byteStride":12},{"buffer":0,"byteOffset":11448,"byteLength":432,"target":34962,"byteStride":12},{"buffer":0,"byteOffset":11880,"byteLength":288,"target":34962,"byteStride":8},{"buffer":0,"byteOffset":12168,"byteLength":12,"target":34963},{"buffer":0,"byteOffset":12180,"byteLength":12,"target":34963},{"buffer":0,"byteOffset":12192,"byteLength":12,"target":34963},{"buffer":0,"byteOffset":12204,"byteLength":12,"target":34963},{"buffer":0,"byteOffset":12216,"byteLength":12,"target":34963},{"buffer":0,"byteOffset":12228,"byteLength":12,"target":34963},{"buffer":0,"byteOffset":12240,"byteLength":432,"target":34962,"byteStride":12},{"buffer":0,"byteOffset":12672,"byteLength":432,"target":34962,"byteStride":12},{"buffer":0,"byteOffset":13104,"byteLength":288,"target":34962,"byteStride":8},{"buffer":0,"byteOffset":13392,"byteLength":12,"target":34963},{"buffer":0,"byteOffset":13404,"byteLength":12,"target":34963},{"buffer":0,"byteOffset":13416,"byteLength":12,"target":34963},{"buffer":0,"byteOffset":13428,"byteLength":12,"target":34963},{"buffer":0,"byteOffset":13440,"byteLength":12,"target":34963},{"buffer":0,"byteOffset":13452,"byteLength":12,"target":34963}],"buffers":[{"byteLength":13464,"uri":"data:application/octet-stream;base64,"}],"accessors":[{"bufferView":0,"componentType":5126,"count":36,"max":[0.10000000149011612,12,2],"min":[-3.9000000953674316,0,-2],"type":"VEC3"},{"bufferView":1,"componentType":5126,"count":36,"max":[1,1,1],"min":[-1,-1,-1],"type":"VEC3"},{"bufferView":2,"componentType":5126,"count":36,"max":[0.499755859375,0.249755859375],"min":[0.250244140625,0.000244140625],"type":"VEC2"},{"bufferView":3,"componentType":5123,"count":6,"max":[5],"min":[0],"type":"SCALAR"},{"bufferView":4,"componentType":5123,"count":6,"max":[11],"min":[6],"type":"SCALAR"},{"bufferView":5,"componentType":5123,"count":6,"max":[17],"min":[12],"type":"SCALAR"},{"bufferView":6,"componentType":5123,"count":6,"max":[23],"min":[18],"type":"SCALAR"},{"bufferView":7,"componentType":5123,"count":6,"max":[29],"min":[24],"type":"SCALAR"},{"bufferView":8,"componentType":5123,"count":6,"max":[35],"min":[30],"type":"SCALAR"},{"bufferView":9,"componentType":5126,"count":36,"max":[0.3499999940395355,12.25,2.25],"min":[-4.150000095367432,-0.25,-2.25],"type":"VEC3"},{"bufferView":10,"componentType":5126,"count":36,"max":[1,1,1],"min":[-1,-1,-1],"type":"VEC3"},{"bufferView":11,"componentType":5126,"count":36,"max":[0.249755859375,0.249755859375],"min":[0.000244140625,0.000244140625],"type":"VEC2"},{"bufferView":12,"componentType":5123,"count":6,"max":[5],"min":[0],"type":"SCALAR"},{"bufferView":13,"componentType":5123,"count":6,"max":[11],"min":[6],"type":"SCALAR"},{"bufferView":14,"componentType":5123,"count":6,"max":[17],"min":[12],"type":"SCALAR"},{"bufferView":15,"componentType":5123,"count":6,"max":[23],"min":[18],"type":"SCALAR"},{"bufferView":16,"componentType":5123,"count":6,"max":[29],"min":[24],"type":"SCALAR"},{"bufferView":17,"componentType":5123,"count":6,"max":[35],"min":[30],"type":"SCALAR"},{"bufferView":18,"componentType":5126,"count":36,"max":[3.9000000953674316,12,2],"min":[-0.10000000149011612,0,-2],"type":"VEC3"},{"bufferView":19,"componentType":5126,"count":36,"max":[1,1,1],"min":[-1,-1,-1],"type":"VEC3"},{"bufferView":20,"componentType":5126,"count":36,"max":[0.249755859375,0.749755859375],"min":[0.000244140625,0.500244140625],"type":"VEC2"},{"bufferView":21,"componentType":5123,"count":6,"max":[5],"min":[0],"type":"SCALAR"},{"bufferView":22,"componentType":5123,"count":6,"max":[11],"min":[6],"type":"SCALAR"},{"bufferView":23,"componentType":5123,"count":6,"max":[17],"min":[12],"type":"SCALAR"},{"bufferView":24,"componentType":5123,"count":6,"max":[23],"min":[18],"type":"SCALAR"},{"bufferView":25,"componentType":5123,"count":6,"max":[29],"min":[24],"type":"SCALAR"},{"bufferView":26,"componentType":5123,"count":6,"max":[35],"min":[30],"type":"SCALAR"},{"bufferView":27,"componentType":5126,"count":36,"max":[4.150000095367432,12.25,2.25],"min":[-0.3499999940395355,-0.25,-2.25],"type":"VEC3"},{"bufferView":28,"componentType":5126,"count":36,"max":[1,1,1],"min":[-1,-1,-1],"type":"VEC3"},{"bufferView":29,"componentType":5126,"count":36,"max":[0.249755859375,0.499755859375],"min":[0.000244140625,0.250244140625],"type":"VEC2"},{"bufferView":30,"componentType":5123,"count":6,"max":[5],"min":[0],"type":"SCALAR"},{"bufferView":31,"componentType":5123,"count":6,"max":[11],"min":[6],"type":"SCALAR"},{"bufferView":32,"componentType":5123,"count":6,"max":[17],"min":[12],"type":"SCALAR"},{"bufferView":33,"componentType":5123,"count":6,"max":[23],"min":[18],"type":"SCALAR"},{"bufferView":34,"componentType":5123,"count":6,"max":[29],"min":[24],"type":"SCALAR"},{"bufferView":35,"componentType":5123,"count":6,"max":[35],"min":[30],"type":"SCALAR"},{"bufferView":36,"componentType":5126,"count":36,"max":[-4,24,2],"min":[-8,12,-2],"type":"VEC3"},{"bufferView":37,"componentType":5126,"count":36,"max":[1,1,1],"min":[-1,-1,-1],"type":"VEC3"},{"bufferView":38,"componentType":5126,"count":36,"max":[0.749755859375,0.249755859375],"min":[0.500244140625,0.000244140625],"type":"VEC2"},{"bufferView":39,"componentType":5123,"count":6,"max":[5],"min":[0],"type":"SCALAR"},{"bufferView":40,"componentType":5123,"count":6,"max":[11],"min":[6],"type":"SCALAR"},{"bufferView":41,"componentType":5123,"count":6,"max":[17],"min":[12],"type":"SCALAR"},{"bufferView":42,"componentType":5123,"count":6,"max":[23],"min":[18],"type":"SCALAR"},{"bufferView":43,"componentType":5123,"count":6,"max":[29],"min":[24],"type":"SCALAR"},{"bufferView":44,"componentType":5123,"count":6,"max":[35],"min":[30],"type":"SCALAR"},{"bufferView":45,"componentType":5126,"count":36,"max":[-3.75,24.25,2.25],"min":[-8.25,11.75,-2.25],"type":"VEC3"},{"bufferView":46,"componentType":5126,"count":36,"max":[1,1,1],"min":[-1,-1,-1],"type":"VEC3"},{"bufferView":47,"componentType":5126,"count":36,"max":[0.999755859375,0.249755859375],"min":[0.750244140625,0.000244140625],"type":"VEC2"},{"bufferView":48,"componentType":5123,"count":6,"max":[5],"min":[0],"type":"SCALAR"},{"bufferView":49,"componentType":5123,"count":6,"max":[11],"min":[6],"type":"SCALAR"},{"bufferView":50,"componentType":5123,"count":6,"max":[17],"min":[12],"type":"SCALAR"},{"bufferView":51,"componentType":5123,"count":6,"max":[23],"min":[18],"type":"SCALAR"},{"bufferView":52,"componentType":5123,"count":6,"max":[29],"min":[24],"type":"SCALAR"},{"bufferView":53,"componentType":5123,"count":6,"max":[35],"min":[30],"type":"SCALAR"},{"bufferView":54,"componentType":5126,"count":36,"max":[8,24,2],"min":[4,12,-2],"type":"VEC3"},{"bufferView":55,"componentType":5126,"count":36,"max":[1,1,1],"min":[-1,-1,-1],"type":"VEC3"},{"bufferView":56,"componentType":5126,"count":36,"max":[0.874755859375,0.749755859375],"min":[0.625244140625,0.500244140625],"type":"VEC2"},{"bufferView":57,"componentType":5123,"count":6,"max":[5],"min":[0],"type":"SCALAR"},{"bufferView":58,"componentType":5123,"count":6,"max":[11],"min":[6],"type":"SCALAR"},{"bufferView":59,"componentType":5123,"count":6,"max":[17],"min":[12],"type":"SCALAR"},{"bufferView":60,"componentType":5123,"count":6,"max":[23],"min":[18],"type":"SCALAR"},{"bufferView":61,"componentType":5123,"count":6,"max":[29],"min":[24],"type":"SCALAR"},{"bufferView":62,"componentType":5123,"count":6,"max":[35],"min":[30],"type":"SCALAR"},{"bufferView":63,"componentType":5126,"count":36,"max":[8.25,24.25,2.25],"min":[3.75,11.75,-2.25],"type":"VEC3"},{"bufferView":64,"componentType":5126,"count":36,"max":[1,1,1],"min":[-1,-1,-1],"type":"VEC3"},{"bufferView":65,"componentType":5126,"count":36,"max":[0.874755859375,0.499755859375],"min":[0.625244140625,0.250244140625],"type":"VEC2"},{"bufferView":66,"componentType":5123,"count":6,"max":[5],"min":[0],"type":"SCALAR"},{"bufferView":67,"componentType":5123,"count":6,"max":[11],"min":[6],"type":"SCALAR"},{"bufferView":68,"componentType":5123,"count":6,"max":[17],"min":[12],"type":"SCALAR"},{"bufferView":69,"componentType":5123,"count":6,"max":[23],"min":[18],"type":"SCALAR"},{"bufferView":70,"componentType":5123,"count":6,"max":[29],"min":[24],"type":"SCALAR"},{"bufferView":71,"componentType":5123,"count":6,"max":[35],"min":[30],"type":"SCALAR"},{"bufferView":72,"componentType":5126,"count":36,"max":[4,24,2],"min":[-4,12,-2],"type":"VEC3"},{"bufferView":73,"componentType":5126,"count":36,"max":[1,1,1],"min":[-1,-1,-1],"type":"VEC3"},{"bufferView":74,"componentType":5126,"count":36,"max":[0.624755859375,0.749755859375],"min":[0.250244140625,0.500244140625],"type":"VEC2"},{"bufferView":75,"componentType":5123,"count":6,"max":[5],"min":[0],"type":"SCALAR"},{"bufferView":76,"componentType":5123,"count":6,"max":[11],"min":[6],"type":"SCALAR"},{"bufferView":77,"componentType":5123,"count":6,"max":[17],"min":[12],"type":"SCALAR"},{"bufferView":78,"componentType":5123,"count":6,"max":[23],"min":[18],"type":"SCALAR"},{"bufferView":79,"componentType":5123,"count":6,"max":[29],"min":[24],"type":"SCALAR"},{"bufferView":80,"componentType":5123,"count":6,"max":[35],"min":[30],"type":"SCALAR"},{"bufferView":81,"componentType":5126,"count":36,"max":[4,32,4],"min":[-4,24,-4],"type":"VEC3"},{"bufferView":82,"componentType":5126,"count":36,"max":[1,1,1],"min":[-1,-1,-1],"type":"VEC3"},{"bufferView":83,"componentType":5126,"count":36,"max":[0.499755859375,0.999755859375],"min":[0.000244140625,0.750244140625],"type":"VEC2"},{"bufferView":84,"componentType":5123,"count":6,"max":[5],"min":[0],"type":"SCALAR"},{"bufferView":85,"componentType":5123,"count":6,"max":[11],"min":[6],"type":"SCALAR"},{"bufferView":86,"componentType":5123,"count":6,"max":[17],"min":[12],"type":"SCALAR"},{"bufferView":87,"componentType":5123,"count":6,"max":[23],"min":[18],"type":"SCALAR"},{"bufferView":88,"componentType":5123,"count":6,"max":[29],"min":[24],"type":"SCALAR"},{"bufferView":89,"componentType":5123,"count":6,"max":[35],"min":[30],"type":"SCALAR"},{"bufferView":90,"componentType":5126,"count":36,"max":[4.5,32.5,4.5],"min":[-4.5,23.5,-4.5],"type":"VEC3"},{"bufferView":91,"componentType":5126,"count":36,"max":[1,1,1],"min":[-1,-1,-1],"type":"VEC3"},{"bufferView":92,"componentType":5126,"count":36,"max":[0.999755859375,0.999755859375],"min":[0.500244140625,0.750244140625],"type":"VEC2"},{"bufferView":93,"componentType":5123,"count":6,"max":[5],"min":[0],"type":"SCALAR"},{"bufferView":94,"componentType":5123,"count":6,"max":[11],"min":[6],"type":"SCALAR"},{"bufferView":95,"componentType":5123,"count":6,"max":[17],"min":[12],"type":"SCALAR"},{"bufferView":96,"componentType":5123,"count":6,"max":[23],"min":[18],"type":"SCALAR"},{"bufferView":97,"componentType":5123,"count":6,"max":[29],"min":[24],"type":"SCALAR"},{"bufferView":98,"componentType":5123,"count":6,"max":[35],"min":[30],"type":"SCALAR"}],"materials":[{"pbrMetallicRoughness":{"metallicFactor":0,"roughnessFactor":1,"baseColorTexture":{"index":0}},"alphaMode":"MASK","alphaCutoff":0.2,"doubleSided":true,"name":"StarNire.png"}],"textures":[{"sampler":0,"source":0,"name":"StarNire.png"}],"samplers":[{"magFilter":9728,"minFilter":9728,"wrapS":33071,"wrapT":33071}],"images":[{"mimeType":"image/png","uri":"data:image/png;base64,"}],"meshes":[{"primitives":[{"mode":4,"attributes":{"POSITION":0,"NORMAL":1,"TEXCOORD_0":2},"indices":3,"material":0},{"mode":4,"attributes":{"POSITION":0,"NORMAL":1,"TEXCOORD_0":2},"indices":4,"material":0},{"mode":4,"attributes":{"POSITION":0,"NORMAL":1,"TEXCOORD_0":2},"indices":5,"material":0},{"mode":4,"attributes":{"POSITION":0,"NORMAL":1,"TEXCOORD_0":2},"indices":6,"material":0},{"mode":4,"attributes":{"POSITION":0,"NORMAL":1,"TEXCOORD_0":2},"indices":7,"material":0},{"mode":4,"attributes":{"POSITION":0,"NORMAL":1,"TEXCOORD_0":2},"indices":8,"material":0}]},{"primitives":[{"mode":4,"attributes":{"POSITION":9,"NORMAL":10,"TEXCOORD_0":11},"indices":12,"material":0},{"mode":4,"attributes":{"POSITION":9,"NORMAL":10,"TEXCOORD_0":11},"indices":13,"material":0},{"mode":4,"attributes":{"POSITION":9,"NORMAL":10,"TEXCOORD_0":11},"indices":14,"material":0},{"mode":4,"attributes":{"POSITION":9,"NORMAL":10,"TEXCOORD_0":11},"indices":15,"material":0},{"mode":4,"attributes":{"POSITION":9,"NORMAL":10,"TEXCOORD_0":11},"indices":16,"material":0},{"mode":4,"attributes":{"POSITION":9,"NORMAL":10,"TEXCOORD_0":11},"indices":17,"material":0}]},{"primitives":[{"mode":4,"attributes":{"POSITION":18,"NORMAL":19,"TEXCOORD_0":20},"indices":21,"material":0},{"mode":4,"attributes":{"POSITION":18,"NORMAL":19,"TEXCOORD_0":20},"indices":22,"material":0},{"mode":4,"attributes":{"POSITION":18,"NORMAL":19,"TEXCOORD_0":20},"indices":23,"material":0},{"mode":4,"attributes":{"POSITION":18,"NORMAL":19,"TEXCOORD_0":20},"indices":24,"material":0},{"mode":4,"attributes":{"POSITION":18,"NORMAL":19,"TEXCOORD_0":20},"indices":25,"material":0},{"mode":4,"attributes":{"POSITION":18,"NORMAL":19,"TEXCOORD_0":20},"indices":26,"material":0}]},{"primitives":[{"mode":4,"attributes":{"POSITION":27,"NORMAL":28,"TEXCOORD_0":29},"indices":30,"material":0},{"mode":4,"attributes":{"POSITION":27,"NORMAL":28,"TEXCOORD_0":29},"indices":31,"material":0},{"mode":4,"attributes":{"POSITION":27,"NORMAL":28,"TEXCOORD_0":29},"indices":32,"material":0},{"mode":4,"attributes":{"POSITION":27,"NORMAL":28,"TEXCOORD_0":29},"indices":33,"material":0},{"mode":4,"attributes":{"POSITION":27,"NORMAL":28,"TEXCOORD_0":29},"indices":34,"material":0},{"mode":4,"attributes":{"POSITION":27,"NORMAL":28,"TEXCOORD_0":29},"indices":35,"material":0}]},{"primitives":[{"mode":4,"attributes":{"POSITION":36,"NORMAL":37,"TEXCOORD_0":38},"indices":39,"material":0},{"mode":4,"attributes":{"POSITION":36,"NORMAL":37,"TEXCOORD_0":38},"indices":40,"material":0},{"mode":4,"attributes":{"POSITION":36,"NORMAL":37,"TEXCOORD_0":38},"indices":41,"material":0},{"mode":4,"attributes":{"POSITION":36,"NORMAL":37,"TEXCOORD_0":38},"indices":42,"material":0},{"mode":4,"attributes":{"POSITION":36,"NORMAL":37,"TEXCOORD_0":38},"indices":43,"material":0},{"mode":4,"attributes":{"POSITION":36,"NORMAL":37,"TEXCOORD_0":38},"indices":44,"material":0}]},{"primitives":[{"mode":4,"attributes":{"POSITION":45,"NORMAL":46,"TEXCOORD_0":47},"indices":48,"material":0},{"mode":4,"attributes":{"POSITION":45,"NORMAL":46,"TEXCOORD_0":47},"indices":49,"material":0},{"mode":4,"attributes":{"POSITION":45,"NORMAL":46,"TEXCOORD_0":47},"indices":50,"material":0},{"mode":4,"attributes":{"POSITION":45,"NORMAL":46,"TEXCOORD_0":47},"indices":51,"material":0},{"mode":4,"attributes":{"POSITION":45,"NORMAL":46,"TEXCOORD_0":47},"indices":52,"material":0},{"mode":4,"attributes":{"POSITION":45,"NORMAL":46,"TEXCOORD_0":47},"indices":53,"material":0}]},{"primitives":[{"mode":4,"attributes":{"POSITION":54,"NORMAL":55,"TEXCOORD_0":56},"indices":57,"material":0},{"mode":4,"attributes":{"POSITION":54,"NORMAL":55,"TEXCOORD_0":56},"indices":58,"material":0},{"mode":4,"attributes":{"POSITION":54,"NORMAL":55,"TEXCOORD_0":56},"indices":59,"material":0},{"mode":4,"attributes":{"POSITION":54,"NORMAL":55,"TEXCOORD_0":56},"indices":60,"material":0},{"mode":4,"attributes":{"POSITION":54,"NORMAL":55,"TEXCOORD_0":56},"indices":61,"material":0},{"mode":4,"attributes":{"POSITION":54,"NORMAL":55,"TEXCOORD_0":56},"indices":62,"material":0}]},{"primitives":[{"mode":4,"attributes":{"POSITION":63,"NORMAL":64,"TEXCOORD_0":65},"indices":66,"material":0},{"mode":4,"attributes":{"POSITION":63,"NORMAL":64,"TEXCOORD_0":65},"indices":67,"material":0},{"mode":4,"attributes":{"POSITION":63,"NORMAL":64,"TEXCOORD_0":65},"indices":68,"material":0},{"mode":4,"attributes":{"POSITION":63,"NORMAL":64,"TEXCOORD_0":65},"indices":69,"material":0},{"mode":4,"attributes":{"POSITION":63,"NORMAL":64,"TEXCOORD_0":65},"indices":70,"material":0},{"mode":4,"attributes":{"POSITION":63,"NORMAL":64,"TEXCOORD_0":65},"indices":71,"material":0}]},{"primitives":[{"mode":4,"attributes":{"POSITION":72,"NORMAL":73,"TEXCOORD_0":74},"indices":75,"material":0},{"mode":4,"attributes":{"POSITION":72,"NORMAL":73,"TEXCOORD_0":74},"indices":76,"material":0},{"mode":4,"attributes":{"POSITION":72,"NORMAL":73,"TEXCOORD_0":74},"indices":77,"material":0},{"mode":4,"attributes":{"POSITION":72,"NORMAL":73,"TEXCOORD_0":74},"indices":78,"material":0},{"mode":4,"attributes":{"POSITION":72,"NORMAL":73,"TEXCOORD_0":74},"indices":79,"material":0},{"mode":4,"attributes":{"POSITION":72,"NORMAL":73,"TEXCOORD_0":74},"indices":80,"material":0}]},{"primitives":[{"mode":4,"attributes":{"POSITION":81,"NORMAL":82,"TEXCOORD_0":83},"indices":84,"material":0},{"mode":4,"attributes":{"POSITION":81,"NORMAL":82,"TEXCOORD_0":83},"indices":85,"material":0},{"mode":4,"attributes":{"POSITION":81,"NORMAL":82,"TEXCOORD_0":83},"indices":86,"material":0},{"mode":4,"attributes":{"POSITION":81,"NORMAL":82,"TEXCOORD_0":83},"indices":87,"material":0},{"mode":4,"attributes":{"POSITION":81,"NORMAL":82,"TEXCOORD_0":83},"indices":88,"material":0},{"mode":4,"attributes":{"POSITION":81,"NORMAL":82,"TEXCOORD_0":83},"indices":89,"material":0}]},{"primitives":[{"mode":4,"attributes":{"POSITION":90,"NORMAL":91,"TEXCOORD_0":92},"indices":93,"material":0},{"mode":4,"attributes":{"POSITION":90,"NORMAL":91,"TEXCOORD_0":92},"indices":94,"material":0},{"mode":4,"attributes":{"POSITION":90,"NORMAL":91,"TEXCOORD_0":92},"indices":95,"material":0},{"mode":4,"attributes":{"POSITION":90,"NORMAL":91,"TEXCOORD_0":92},"indices":96,"material":0},{"mode":4,"attributes":{"POSITION":90,"NORMAL":91,"TEXCOORD_0":92},"indices":97,"material":0},{"mode":4,"attributes":{"POSITION":90,"NORMAL":91,"TEXCOORD_0":92},"indices":98,"material":0}]}]}